<svg width="141" height="126" viewBox="0 0 141 126" fill="none" xmlns="http://www.w3.org/2000/svg">
<g clip-path="url(#clip0_69_669)">
<path d="M66.6 61.58C66.04 61.1 65.55 60.66 65.04 60.26C63.8321 59.4202 62.7683 58.3902 61.89 57.21C61.2707 56.3028 60.9428 55.2284 60.95 54.13V50.76C60.9359 50.6252 60.9521 50.4889 60.9973 50.3612C61.0426 50.2334 61.1158 50.1174 61.2116 50.0216C61.3074 49.9257 61.4235 49.8525 61.5512 49.8073C61.679 49.762 61.8152 49.7458 61.95 49.76H79.84C79.9635 49.7519 80.0874 49.7682 80.2046 49.8081C80.3218 49.8479 80.4299 49.9105 80.5228 49.9923C80.6157 50.074 80.6916 50.1734 80.746 50.2845C80.8005 50.3957 80.8324 50.5165 80.84 50.64C80.84 52 80.84 53.36 80.79 54.72C80.7038 56.0651 80.0978 57.3238 79.1 58.23C78.31 58.99 77.41 59.66 76.57 60.37C76.26 60.63 75.95 60.88 75.67 61.15C75.23 61.58 75.22 61.71 75.67 62.15C76.12 62.59 76.7601 62.98 77.3101 63.39C78.4705 64.1602 79.4387 65.1866 80.14 66.39C80.5755 67.1882 80.809 68.0808 80.82 68.99C80.82 70.64 80.82 72.29 80.82 73.93C80.8324 74.0758 80.8126 74.2225 80.762 74.3599C80.7115 74.4972 80.6314 74.6217 80.5275 74.7247C80.4235 74.8277 80.2982 74.9067 80.1604 74.9559C80.0226 75.0052 79.8757 75.0237 79.73 75.01H62.01C61.8685 75.0188 61.7268 74.9974 61.5942 74.9472C61.4616 74.897 61.3413 74.8193 61.241 74.719C61.1408 74.6188 61.063 74.4984 61.0128 74.3658C60.9627 74.2332 60.9413 74.0915 60.95 73.95C60.95 72.31 60.95 70.68 60.95 69.05C60.9566 67.5657 61.5206 66.1381 62.5301 65.05C63.4089 64.1504 64.3772 63.3429 65.42 62.64C65.8 62.26 66.15 61.95 66.6 61.58ZM62.82 51.58C62.82 52.49 62.82 53.36 62.82 54.23C62.815 54.9046 63.0175 55.5644 63.4 56.12C64.0011 56.946 64.7224 57.6775 65.54 58.29C66.2694 58.8478 66.9703 59.4419 67.64 60.07C67.8701 60.2618 68.0541 60.5029 68.1785 60.7754C68.3029 61.0479 68.3645 61.3449 68.3587 61.6444C68.3529 61.9439 68.28 62.2383 68.1452 62.5058C68.0105 62.7733 67.8173 63.0071 67.58 63.19C67.29 63.47 66.9701 63.71 66.6601 63.96C65.7701 64.68 64.83 65.37 63.98 66.15C63.638 66.4632 63.3612 66.8408 63.1656 67.2612C62.9699 67.6817 62.8593 68.1366 62.84 68.6C62.84 70.04 62.84 71.49 62.84 72.94H79.04C79.04 71.6 79.04 70.29 79.04 68.99C79.0273 68.5672 78.9635 68.1475 78.85 67.74C78.4389 66.6505 77.6933 65.7193 76.7201 65.08C75.9101 64.44 75.0401 63.87 74.2801 63.18C74.0648 63.0003 73.8877 62.7792 73.7592 62.5299C73.6307 62.2807 73.5535 62.0081 73.5321 61.7285C73.5107 61.4489 73.5454 61.1678 73.6344 60.9019C73.7234 60.6359 73.8647 60.3905 74.05 60.18C74.3295 59.8439 74.6409 59.5358 74.98 59.26C75.89 58.49 76.85 57.77 77.73 56.97C78.1292 56.6308 78.4529 56.2117 78.6803 55.7398C78.9076 55.2679 79.0336 54.7536 79.05 54.23C79.05 53.41 79.05 52.6 79.05 51.79C79.0539 51.7167 79.0539 51.6433 79.05 51.57L62.82 51.58Z" fill="#706D7C"/>
<path d="M70.92 71.5H64.92C64.45 71.5 64.39 71.5 64.41 70.98C64.404 70.362 64.4644 69.7451 64.59 69.14C64.9161 68.3637 65.5082 67.7291 66.26 67.35C67.5274 66.5163 68.9325 65.9137 70.41 65.57C70.952 65.4743 71.5099 65.5332 72.02 65.74C73.6855 66.2587 75.2271 67.1129 76.55 68.25C76.853 68.4814 77.0914 68.787 77.242 69.1373C77.3926 69.4876 77.4505 69.8708 77.41 70.25C77.39 70.5263 77.39 70.8037 77.41 71.08C77.41 71.45 77.28 71.55 76.93 71.54H70.93L70.92 71.5Z" fill="#706D7C"/>
<path d="M70.9401 62.22C70.7188 62.2338 70.5011 62.1595 70.3344 62.0134C70.1677 61.8672 70.0655 61.6611 70.0501 61.44C69.8128 60.2456 69.1479 59.1789 68.1801 58.44C67.4001 57.73 66.5901 57.05 65.7901 56.36C65.6945 56.2799 65.6163 56.1812 65.5601 56.07C65.4601 55.86 65.6501 55.7 65.9701 55.75C66.5801 55.86 67.1901 55.99 67.8001 56.08C69.5157 56.363 71.2624 56.4068 72.9901 56.21C73.9901 56.1 74.9 55.89 75.85 55.75C75.9977 55.7606 76.1429 55.7943 76.2801 55.85C76.2301 55.98 76.2201 56.16 76.1301 56.24C75.3201 56.95 74.4901 57.64 73.6801 58.35C72.8623 58.9687 72.2491 59.8188 71.9201 60.79C71.8401 61.08 71.8201 61.38 71.7201 61.65C71.6799 61.8227 71.5791 61.9752 71.4359 62.0799C71.2928 62.1845 71.1168 62.2342 70.9401 62.22V62.22Z" fill="#706D7C"/>
<path d="M115.93 40.66C114.47 40.15 112.93 39.66 111.39 39.23C111.65 38.23 111.89 37.15 112.1 36.13C115.53 19.45 113.29 6.02 105.61 1.59C98.26 -2.65 86.23 1.76998 74.08 12.35C72.91 13.35 71.7399 14.44 70.5699 15.57C69.7899 14.8233 69.0099 14.1033 68.2299 13.41C55.49 2.09998 42.7399 -2.66001 35.0699 1.82999C27.7199 6.07999 25.55 18.71 28.64 34.52C28.94 36.04 29.29 37.6 29.64 39.19C27.84 39.7 26.09 40.25 24.43 40.83C9.49996 46.03 -0.0400391 54.19 -0.0400391 62.65C-0.0400391 71.39 10.2 80.15 25.75 85.47C26.97 85.89 28.25 86.28 29.56 86.66C29.1333 88.38 28.7633 90.0466 28.45 91.66C25.5 107.2 27.81 119.53 35.13 123.76C42.7 128.12 55.41 123.63 67.78 112.82C68.78 111.97 69.78 111.06 70.72 110.11C72 111.343 73.2733 112.503 74.5399 113.59C86.5399 123.9 98.35 128.06 105.68 123.82C113.24 119.45 115.68 106.2 112.51 90.08C112.26 88.85 111.98 87.59 111.66 86.31C112.55 86.05 113.43 85.77 114.28 85.49C130.45 80.13 140.96 71.49 140.96 62.62C141 54.11 131.16 45.9 115.93 40.66ZM112.43 79.75C111.66 80.01 110.87 80.25 110.06 80.49C108.091 74.3804 105.706 68.413 102.92 62.63C105.597 56.9231 107.889 51.0433 109.78 45.03C111.22 45.45 112.62 45.89 113.97 46.35C126.97 50.84 134.97 57.48 134.97 62.6C134.98 68.05 126.38 75.13 112.43 79.75V79.75ZM106.64 91.23C108.05 98.36 108.25 104.8 107.31 109.84C106.47 114.36 104.79 117.38 102.7 118.59C98.25 121.16 88.75 117.82 78.5 109C77.3333 107.993 76.1533 106.917 74.96 105.77C79.2296 101.039 83.1784 96.0277 86.78 90.77C93.2034 90.2309 99.582 89.2486 105.87 87.83C106.16 88.98 106.42 90.12 106.64 91.23ZM48.0699 118.15C43.7299 119.68 40.27 119.72 38.18 118.52C33.74 115.95 31.89 106.05 34.41 92.77C34.7 91.25 35.04 89.68 35.41 88.09C41.7016 89.4285 48.0759 90.3438 54.49 90.83C58.1758 96.087 62.201 101.098 66.5399 105.83C65.6399 106.7 64.75 107.53 63.86 108.31C58.39 113.05 52.9099 116.44 48.0699 118.15ZM27.73 79.72C20.86 77.37 15.18 74.32 11.29 70.98C7.78996 67.98 6.02995 64.98 6.02995 62.6C6.02995 57.47 13.68 50.92 26.45 46.47C27.9966 45.93 29.6133 45.42 31.3 44.94C33.1987 51.0203 35.4936 56.9697 38.17 62.75C35.4561 68.6164 33.1343 74.6563 31.22 80.83C30.02 80.46 28.85 80.1 27.73 79.72V79.72ZM34.55 33.31C31.9 19.77 33.66 9.55 38.09 6.99C42.81 4.26 53.24 8.14998 64.2299 17.91C64.9399 18.54 65.6399 19.19 66.3499 19.91C62.0226 24.5898 58.0137 29.5543 54.3499 34.77C48.0081 35.3255 41.7085 36.2875 35.49 37.65C35.15 36.18 34.83 34.73 34.55 33.31ZM95.37 48.31C93.9833 45.8967 92.5566 43.5467 91.09 41.26C95.58 41.83 99.89 42.58 103.94 43.51C102.641 47.6296 101.136 51.6814 99.43 55.65C98.1366 53.2367 96.7833 50.7967 95.37 48.33V48.31ZM70.5699 24.15C73.5035 27.3412 76.2737 30.6788 78.87 34.15C76.11 34.0233 73.32 33.9567 70.5 33.95C67.72 33.95 64.94 34.02 62.2 34.14C64.94 30.57 67.7499 27.22 70.5699 24.17V24.15ZM45.5699 48.35C44.1833 50.77 42.8499 53.2 41.5699 55.64C39.8199 51.48 38.31 47.39 37.09 43.44C41.09 42.54 45.4 41.8 49.87 41.25C48.39 43.5567 46.95 45.9233 45.55 48.35H45.5699ZM50.02 84.35C45.6543 83.8719 41.3155 83.1744 37.02 82.26C38.3497 78.0415 39.8916 73.8929 41.64 69.83C42.9 72.27 44.2333 74.7 45.64 77.12C47.06 79.5933 48.5333 82.01 50.06 84.37L50.02 84.35ZM70.7 101.44C67.84 98.36 65 94.95 62.21 91.28C64.91 91.39 67.67 91.44 70.46 91.44C73.25 91.44 76.1799 91.38 78.9799 91.25C76.4098 94.7921 73.6595 98.1999 70.74 101.46L70.7 101.44ZM99.49 69.61C101.28 73.6622 102.859 77.8044 104.22 82.02C99.8781 82.9925 95.4889 83.7401 91.0699 84.26C92.5299 81.94 93.98 79.54 95.4 77.08C96.82 74.62 98.2 72.1 99.49 69.61ZM90.18 74.07C87.98 77.9 85.71 81.54 83.42 84.99C79.23 85.29 74.91 85.44 70.5 85.44C66.09 85.44 61.85 85.3 57.74 85.04C55.35 81.55 53.0399 77.89 50.8499 74.11C48.6599 70.33 46.6499 66.53 44.8499 62.75C46.6699 58.95 48.6799 55.15 50.8499 51.38C53.0199 47.6 55.32 43.96 57.68 40.5C61.88 40.18 66.18 40.01 70.52 40.01C74.89 40.01 79.19 40.18 83.39 40.5C85.72 43.94 87.99 47.57 90.18 51.35C92.37 55.13 94.4199 58.95 96.2599 62.66C94.4099 66.43 92.38 70.26 90.18 74.07V74.07ZM102.61 6.82999C107.33 9.54999 109.16 20.53 106.2 34.93C106.01 35.85 105.79 36.79 105.56 37.74C99.3501 36.3229 93.0529 35.3207 86.71 34.74C83.0768 29.5074 79.0943 24.526 74.7899 19.83C75.8699 18.83 76.96 17.83 78.03 16.83C88.49 7.82999 98.17 4.24999 102.61 6.82999Z" fill="#535360"/>
</g>
<defs>
<clipPath id="clip0_69_669">
<rect width="141" height="125.45" fill="white"/>
</clipPath>
</defs>
</svg>
