<svg width="263" height="126" viewBox="0 0 263 126" fill="none" xmlns="http://www.w3.org/2000/svg">
<path d="M199.865 124.962L155.428 112.626L145.476 1H254.39L244.427 112.608L199.865 124.962Z" stroke="#6F6D7C" stroke-width="2"/>
<path fill-rule="evenodd" clip-rule="evenodd" d="M228.398 94.0341L228.607 91.6843L231.876 55.0675L232.215 51.3326H181.528L180.257 37.09H199.909H233.436L233.76 33.9638L234.394 26.9128L234.726 23.1813H199.909H165.057L165.39 26.9128L168.808 65.2411H199.933H217.012L215.397 83.2795L199.93 87.4541L184.382 83.2884L183.392 72.1956H175.865H169.43L171.378 94.0341L199.869 101.943L228.398 94.0341Z" fill="#6F6D7C"/>
<path fill-rule="evenodd" clip-rule="evenodd" d="M0 0L10.1049 113.335L55.4514 125.923L100.921 113.316L111.037 0H0ZM92.3082 106.186L55.6118 116.281V64.9567L24.3474 64.9567L23.1302 51.0771V51.0771L55.6118 37.175V36.2147H21.8941L20.6624 22.3351H55.4708H55.6118V9.43844H100.906L92.3082 106.186ZM55.5044 87.4089L55.6118 87.3928V101.856L55.5013 101.882L26.9795 93.9846L25.0322 72.1741H38.9865L39.9994 83.245L55.5044 87.4089Z" fill="#6F6D7C"/>
<path fill-rule="evenodd" clip-rule="evenodd" d="M57.8523 36.2147L55.6118 37.1749L55.6118 51.077V64.9566H72.5872L71.0443 83.1032L55.6118 87.4047V101.866L84.039 93.9693L87.7823 51.077H55.612L89.0443 36.2147L90.2382 22.3351H55.6118V36.0407V36.2147H57.8523Z" fill="#6F6D7C"/>
</svg>
