<svg width="141" height="126" viewBox="0 0 141 126" fill="none" xmlns="http://www.w3.org/2000/svg">
<g clip-path="url(#clip0_69_674)">
<path d="M61.36 70.48C63.06 68.71 64.72 66.93 66.45 65.22C70.19 61.49 73.96 57.79 77.72 54.08L77.97 53.84C78.056 53.7413 78.1698 53.6708 78.2965 53.6378C78.4232 53.6048 78.557 53.6109 78.6802 53.6552C78.8034 53.6995 78.9104 53.78 78.9871 53.8862C79.0638 53.9923 79.1066 54.1191 79.11 54.25C79.4833 56.3967 79.8466 58.55 80.2 60.71C80.71 63.71 81.2 66.76 81.74 69.79C81.805 69.9611 81.7993 70.1509 81.7243 70.3178C81.6493 70.4847 81.5111 70.615 81.34 70.68C78.4467 72.3067 75.5666 73.9534 72.7 75.62C72.3373 75.8571 71.9133 75.9833 71.48 75.9833C71.0467 75.9833 70.6227 75.8571 70.26 75.62C67.38 73.94 64.48 72.29 61.59 70.62L61.36 70.48Z" fill="#706D7C"/>
<path d="M62.01 66.02C62.14 65.16 62.25 64.39 62.37 63.62C62.9234 60.12 63.47 56.62 64.01 53.12C64.25 51.59 64.47 50.06 64.74 48.55C64.7763 48.4152 64.8405 48.2895 64.9283 48.181C65.0162 48.0725 65.1258 47.9836 65.25 47.92C65.57 47.77 65.83 48.01 66 48.31C66.93 50.06 67.88 51.81 68.81 53.56C68.8397 53.6296 68.855 53.7044 68.855 53.78C68.855 53.8556 68.8397 53.9305 68.81 54C66.5967 57.96 64.3867 61.9033 62.18 65.83C62.18 65.83 62.11 65.92 62.01 66.02Z" fill="#706D7C"/>
<path d="M61.75 68.63C61.81 68.5 61.86 68.37 61.93 68.25L70.8 52.44C70.844 52.35 70.8941 52.2632 70.95 52.18C70.9997 52.069 71.0804 51.9748 71.1824 51.9087C71.2844 51.8426 71.4034 51.8074 71.525 51.8074C71.6466 51.8074 71.7655 51.8426 71.8676 51.9087C71.9696 51.9748 72.0503 52.069 72.1 52.18C72.78 53.43 73.42 54.71 74.1 55.96C74.26 56.27 74.04 56.38 73.89 56.53C71.5367 58.9033 69.18 61.27 66.82 63.63L62.14 68.31L61.79 68.64L61.75 68.63Z" fill="#706D7C"/>
<path d="M115.93 40.66C114.47 40.15 112.93 39.66 111.39 39.23C111.65 38.23 111.89 37.15 112.1 36.13C115.53 19.45 113.29 6.02 105.61 1.59C98.26 -2.65 86.23 1.76998 74.08 12.35C72.91 13.35 71.7399 14.44 70.5699 15.57C69.7899 14.8233 69.0099 14.1033 68.2299 13.41C55.49 2.09998 42.7399 -2.66001 35.0699 1.82999C27.7199 6.07999 25.55 18.71 28.64 34.52C28.94 36.04 29.29 37.6 29.64 39.19C27.84 39.7 26.09 40.25 24.43 40.83C9.49996 46.03 -0.0400391 54.19 -0.0400391 62.65C-0.0400391 71.39 10.2 80.15 25.75 85.47C26.97 85.89 28.25 86.28 29.56 86.66C29.1333 88.38 28.7633 90.0466 28.45 91.66C25.5 107.2 27.81 119.53 35.13 123.76C42.7 128.12 55.41 123.63 67.78 112.82C68.78 111.97 69.78 111.06 70.72 110.11C72 111.343 73.2733 112.503 74.5399 113.59C86.5399 123.9 98.35 128.06 105.68 123.82C113.24 119.45 115.68 106.2 112.51 90.08C112.26 88.85 111.98 87.59 111.66 86.31C112.55 86.05 113.43 85.77 114.28 85.49C130.45 80.13 140.96 71.49 140.96 62.62C141 54.11 131.16 45.9 115.93 40.66ZM112.43 79.75C111.66 80.01 110.87 80.25 110.06 80.49C108.091 74.3804 105.706 68.413 102.92 62.63C105.597 56.9231 107.889 51.0433 109.78 45.03C111.22 45.45 112.62 45.89 113.97 46.35C126.97 50.84 134.97 57.48 134.97 62.6C134.98 68.05 126.38 75.13 112.43 79.75V79.75ZM106.64 91.23C108.05 98.36 108.25 104.8 107.31 109.84C106.47 114.36 104.79 117.38 102.7 118.59C98.25 121.16 88.75 117.82 78.5 109C77.3333 107.993 76.1533 106.917 74.96 105.77C79.2296 101.039 83.1784 96.0277 86.78 90.77C93.2034 90.2309 99.582 89.2486 105.87 87.83C106.16 88.98 106.42 90.12 106.64 91.23ZM48.0699 118.15C43.7299 119.68 40.27 119.72 38.18 118.52C33.74 115.95 31.89 106.05 34.41 92.77C34.7 91.25 35.04 89.68 35.41 88.09C41.7016 89.4285 48.0759 90.3438 54.49 90.83C58.1758 96.087 62.201 101.098 66.5399 105.83C65.6399 106.7 64.75 107.53 63.86 108.31C58.39 113.05 52.9099 116.44 48.0699 118.15ZM27.73 79.72C20.86 77.37 15.18 74.32 11.29 70.98C7.78996 67.98 6.02995 64.98 6.02995 62.6C6.02995 57.47 13.68 50.92 26.45 46.47C27.9966 45.93 29.6133 45.42 31.3 44.94C33.1987 51.0203 35.4936 56.9697 38.17 62.75C35.4561 68.6164 33.1343 74.6563 31.22 80.83C30.02 80.46 28.85 80.1 27.73 79.72V79.72ZM34.55 33.31C31.9 19.77 33.66 9.55 38.09 6.99C42.81 4.26 53.24 8.14998 64.2299 17.91C64.9399 18.54 65.6399 19.19 66.3499 19.91C62.0226 24.5898 58.0137 29.5543 54.3499 34.77C48.0081 35.3255 41.7085 36.2875 35.49 37.65C35.15 36.18 34.83 34.73 34.55 33.31ZM95.37 48.31C93.9833 45.8967 92.5566 43.5467 91.09 41.26C95.58 41.83 99.89 42.58 103.94 43.51C102.641 47.6296 101.136 51.6814 99.43 55.65C98.1366 53.2367 96.7833 50.7967 95.37 48.33V48.31ZM70.5699 24.15C73.5035 27.3412 76.2737 30.6788 78.87 34.15C76.11 34.0233 73.32 33.9567 70.5 33.95C67.72 33.95 64.94 34.02 62.2 34.14C64.94 30.57 67.7499 27.22 70.5699 24.17V24.15ZM45.5699 48.35C44.1833 50.77 42.8499 53.2 41.5699 55.64C39.8199 51.48 38.31 47.39 37.09 43.44C41.09 42.54 45.4 41.8 49.87 41.25C48.39 43.5567 46.95 45.9233 45.55 48.35H45.5699ZM50.02 84.35C45.6543 83.8719 41.3155 83.1744 37.02 82.26C38.3497 78.0415 39.8916 73.8929 41.64 69.83C42.9 72.27 44.2333 74.7 45.64 77.12C47.06 79.5933 48.5333 82.01 50.06 84.37L50.02 84.35ZM70.7 101.44C67.84 98.36 65 94.95 62.21 91.28C64.91 91.39 67.67 91.44 70.46 91.44C73.25 91.44 76.1799 91.38 78.9799 91.25C76.4098 94.7921 73.6595 98.1999 70.74 101.46L70.7 101.44ZM99.49 69.61C101.28 73.6622 102.859 77.8044 104.22 82.02C99.8781 82.9925 95.4889 83.7401 91.0699 84.26C92.5299 81.94 93.98 79.54 95.4 77.08C96.82 74.62 98.2 72.1 99.49 69.61ZM90.18 74.07C87.98 77.9 85.71 81.54 83.42 84.99C79.23 85.29 74.91 85.44 70.5 85.44C66.09 85.44 61.85 85.3 57.74 85.04C55.35 81.55 53.0399 77.89 50.8499 74.11C48.6599 70.33 46.6499 66.53 44.8499 62.75C46.6699 58.95 48.6799 55.15 50.8499 51.38C53.0199 47.6 55.32 43.96 57.68 40.5C61.88 40.18 66.18 40.01 70.52 40.01C74.89 40.01 79.19 40.18 83.39 40.5C85.72 43.94 87.99 47.57 90.18 51.35C92.37 55.13 94.4199 58.95 96.2599 62.66C94.4099 66.43 92.38 70.26 90.18 74.07V74.07ZM102.61 6.82999C107.33 9.54999 109.16 20.53 106.2 34.93C106.01 35.85 105.79 36.79 105.56 37.74C99.3501 36.3229 93.0529 35.3207 86.71 34.74C83.0768 29.5074 79.0943 24.526 74.7899 19.83C75.8699 18.83 76.96 17.83 78.03 16.83C88.49 7.82999 98.17 4.24999 102.61 6.82999Z" fill="#535360"/>
</g>
<defs>
<clipPath id="clip0_69_674">
<rect width="141" height="125.45" fill="white"/>
</clipPath>
</defs>
</svg>
