<svg width="110" height="48" viewBox="0 0 110 48" fill="none" xmlns="http://www.w3.org/2000/svg">
<g clip-path="url(#clip0_71_690)">
<path d="M0.241417 0H38.8244C38.9023 1.13453 39.0425 2.17581 39.0425 3.2171C39.0425 17.0413 38.9802 30.8577 39.1126 44.6819C39.1126 47.3317 38.3336 48.0311 35.7396 48C24.9819 47.8524 14.2163 47.8679 3.45082 48C0.919127 48 -0.0234348 47.4716 -6.53331e-05 44.7285C0.132362 30.8111 0.0544605 16.8936 0.0700402 2.9762C0.0700402 2.08256 0.163519 1.20447 0.241417 0ZM14.4578 24.3147C14.4578 30.5779 14.4578 36.8412 14.4578 43.0966C14.4578 44.713 14.5435 46.1039 16.748 46.0651C20.9234 45.9951 25.1221 46.1972 29.2896 45.9407C33.7688 45.661 36.7056 42.6071 36.7679 38.17C36.9029 29.0316 36.9029 19.8906 36.7679 10.747C36.7056 5.95241 33.6519 2.9762 28.8456 2.82078C24.9507 2.67314 21.0558 2.82078 17.1609 2.75862C15.1278 2.71199 14.3488 3.47353 14.3799 5.55609C14.4578 11.796 14.4578 18.0592 14.4578 24.3147ZM9.83068 24.7576C9.83068 18.3001 9.71384 11.8504 9.88521 5.40068C9.96311 2.56435 8.32725 2.70422 6.4499 2.74308C4.57256 2.78193 2.66405 2.33899 2.6952 5.40844C2.80946 18.023 2.80946 30.6323 2.6952 43.2365C2.6952 46.0962 4.25317 46.1428 6.30189 46.0962C8.35061 46.0495 9.98648 46.1972 9.88521 43.221C9.65931 37.0743 9.78394 30.9121 9.78394 24.7576H9.83068Z" fill="#535360"/>
<path d="M88.9441 32.0855H95.5109V40.1515H103.153C103.69 35.5435 104.01 31.3861 99.4604 28.2467C96.3834 26.1175 93.7504 23.2812 91.1876 20.476C90.0162 19.1833 89.2522 17.5753 88.9909 15.8524C88.6403 12.915 88.8896 9.89996 88.8974 6.91599C88.8974 4.37495 90.1126 3.03061 92.7378 3.03061C97.2247 3.03061 101.709 3.03061 106.191 3.03061C108.832 3.03061 110.008 4.34387 109.938 6.91599C109.938 8.30696 109.938 9.69793 109.938 11.0889C109.938 16.8937 109.938 16.8937 103.386 15.9689V8.2448C101.05 8.2448 99.0319 8.2448 96.991 8.2448C96.7548 8.26382 96.5247 8.33003 96.3146 8.43949C96.1045 8.54896 95.9186 8.69943 95.768 8.88199C94.8644 10.1564 95.768 16.0933 96.991 17.2822C100.605 20.7091 104.36 23.9961 107.827 27.5474C108.945 28.7599 109.651 30.2937 109.844 31.9301C110.14 35.186 109.914 38.4886 109.938 41.7679C109.938 44.3711 108.652 45.6532 106.09 45.6532H92.6365C90.541 45.6532 89.0766 44.6819 88.9831 42.5449C88.8351 39.1413 88.9441 35.6834 88.9441 32.0855Z" fill="#535360"/>
<path d="M70.381 3.22485H77.4697C80.2117 17.2589 82.9225 31.1996 85.7814 45.6998C84.0366 45.7708 82.2893 45.7501 80.5467 45.6377C79.9624 45.5677 79.347 44.8606 78.9887 44.2778C78.7642 43.7249 78.6504 43.1336 78.6537 42.5371C77.8748 37.051 76.9322 36.3827 71.3469 37.4007C70.6737 37.6366 70.1163 38.1203 69.7889 38.7528C69.5493 39.4029 69.4203 40.0884 69.4072 40.7809C68.4491 46.1505 68.4491 46.1505 62.2328 45.4434L70.381 3.22485ZM76.9088 31.7435C75.9974 26.1175 75.125 20.7091 74.2525 15.3084L73.6293 15.2695L70.8016 31.7435H76.9088Z" fill="#535360"/>
<path d="M41.7223 3.26373H59.0858V8.63333H48.2891V20.779H56.9747C57.3798 21.3618 57.5746 21.5095 57.5901 21.6804C58.0497 26.6537 58.0498 26.6226 53.15 26.6693C47.2219 26.7159 48.1021 25.8922 48.0242 31.6736C48.0242 34.238 48.0242 36.8101 48.0242 39.8252H59.2805V45.4745H41.7223V3.26373Z" fill="#535360"/>
<path d="M14.4579 24.3147C14.4579 18.0592 14.5202 11.796 14.4579 5.54054C14.4579 3.45798 15.2369 2.69645 17.2389 2.74307C21.1338 2.82078 25.0287 2.6576 28.9236 2.80524C33.7533 2.98397 36.7835 5.91354 36.8458 10.7314C36.9601 19.875 36.9601 29.016 36.8458 38.1544C36.7835 42.6071 33.8467 45.661 29.3676 45.9252C25.2001 46.1816 21.0013 45.9796 16.826 46.0495C14.6215 46.0495 14.5358 44.6974 14.5358 43.0811C14.4579 36.8723 14.4579 30.5779 14.4579 24.3147ZM21.7414 39.9806C28.7522 40.5789 29.5312 39.9184 29.5312 33.4298C29.5312 26.9412 29.5312 20.4993 29.5312 14.0029C29.5312 9.20835 28.7522 8.50898 24.016 8.63331C22.3645 8.67217 21.679 9.18503 21.7336 10.8868C21.827 14.2671 21.7336 17.6474 21.7336 21.0354L21.7414 39.9806Z" fill="white" fill-opacity="0.8"/>
<path d="M9.78406 24.7576C9.78406 30.9121 9.63604 37.0743 9.84636 43.221C9.94763 46.1972 8.28842 46.0573 6.26307 46.0962C4.23772 46.135 2.63301 46.0962 2.65638 43.2365C2.75505 30.6323 2.75505 18.023 2.65638 5.40844C2.65638 2.33899 4.54152 2.78193 6.41108 2.74307C8.28063 2.70422 9.92426 2.56435 9.84636 5.40067C9.68278 11.8504 9.78406 18.3001 9.78406 24.7576Z" fill="white" fill-opacity="0.8"/>
<path d="M21.7414 39.9806V21.0199C21.7414 17.6319 21.8115 14.2516 21.7414 10.8713C21.6947 9.16949 22.3724 8.65663 24.0238 8.61777C28.7522 8.49344 29.539 9.19281 29.539 13.9874C29.539 20.4578 29.539 26.9335 29.539 33.4143C29.5 39.8796 28.7756 40.5401 21.7414 39.9806Z" fill="#535360"/>
</g>
<defs>
<clipPath id="clip0_71_690">
<rect width="110" height="48" fill="white"/>
</clipPath>
</defs>
</svg>
