<svg width="110" height="90" viewBox="0 0 110 90" fill="none" xmlns="http://www.w3.org/2000/svg">
<g clip-path="url(#clip0_70_679)">
<path d="M32.8999 0.0899933C30.8999 7.61999 31.7199 13.49 37.6399 17.47C39.6819 18.9682 42.138 19.7968 44.6702 19.8415C47.2025 19.8863 49.6863 19.1451 51.7799 17.72C58.0099 13.78 58.9499 7.78998 57.0199 0.109982H66.7299C72.3899 0.109982 78.0699 0.299986 83.7299 0.019986C88.1299 -0.200014 90.04 1.10999 89.78 5.87999C89.41 12.88 89.6699 19.88 89.6999 26.88C89.6999 28.67 89.8699 30.46 89.9599 32.24C103.06 31.79 109.68 36.35 109.35 45.3C109.02 54.25 102.35 58.46 89.6799 57.35C89.6799 65.51 89.6799 73.62 89.6799 81.73C89.6799 89.66 89.6799 89.66 81.9599 89.66C56.7999 89.66 31.6499 89.56 6.48994 89.79C1.48994 89.79 -0.0500486 88.38 -4.86207e-05 83.3C0.249951 57.82 0.119951 32.3 0.139951 6.83999C0.139951 0.109993 0.139935 0.109988 7.13994 0.0999878L32.8999 0.0899933Z" fill="#535360"/>
</g>
<defs>
<clipPath id="clip0_70_679">
<rect width="109.36" height="89.78" fill="white"/>
</clipPath>
</defs>
</svg>
