<svg width="218" height="273" viewBox="0 0 218 273" fill="none" xmlns="http://www.w3.org/2000/svg">
<path d="M107.228 2H110.162C168.615 2 216 49.3854 216 107.838C216 184.062 137.857 235.293 67.9563 204.897L65.2656 203.727C26.8486 187.022 2 149.12 2 107.228C2 49.1121 49.1121 2 107.228 2Z" stroke="#7B4AE2" stroke-opacity="0.5" stroke-width="4"/>
<g clip-path="url(#clip0_16_742)">
<path d="M175.907 94.2619C175.494 90.3667 174.184 83.4034 169.668 83.9205C169.493 83.7578 169.268 83.6604 169.03 83.6447C163.859 83.3 158.809 83.4034 153.708 83.2483C153.708 79.0083 153.863 74.7684 153.863 70.5284C153.873 70.4771 153.873 70.4245 153.863 70.3733V70.3733C153.824 70.1823 153.728 70.0077 153.587 69.8734V69.8734C148.52 64.5131 143.022 59.6354 137.558 54.706C135.369 52.7584 133.077 49.7249 130.664 48.1392L130.474 48.0013H130.388H130.284C128.561 47.1396 123.511 48.3116 121.667 48.3978C103.104 49.2596 84.4892 47.9152 65.9264 47.8635C65.7275 47.8536 65.5306 47.9065 65.3636 48.0148C65.1965 48.1231 65.0678 48.2812 64.9956 48.4667C64.9956 48.4667 64.9956 48.4667 64.9956 48.4667C64.9872 48.5123 64.9872 48.559 64.9956 48.6046C64.9436 48.6939 64.914 48.7944 64.9095 48.8976C63.3927 69.9596 64.0822 91.0044 63.6685 112.084C63.4961 121.494 62.3069 131.905 64.3579 141.143C65.3059 145.435 69.1667 147.624 73.1309 148.468C78.9565 149.744 85.644 148.571 91.5041 148.468C102.638 148.141 113.79 148.175 124.924 148.244C134.421 148.33 143.883 149.364 153.311 149.657C158.189 149.795 167.513 150.174 171.391 146.434C178.165 139.885 176.562 126.906 176.286 118.426C175.821 110.119 176.666 102.242 175.907 94.2619Z" fill="#4E3E70" stroke="black" stroke-miterlimit="10"/>
<path d="M153.673 85.3339H156.431C155.667 86.9886 155.089 88.7227 154.707 90.5046C154.662 90.7706 154.717 91.0442 154.862 91.2719C155.007 91.4995 155.231 91.6651 155.492 91.7361C155.752 91.8071 156.03 91.7786 156.27 91.6561C156.511 91.5335 156.697 91.3258 156.793 91.0733C157.191 89.0926 157.907 87.1894 158.913 85.4373H159.43C158.354 87.0667 157.616 88.8952 157.258 90.8148C156.948 92.1592 158.982 92.728 159.327 91.3836C159.624 89.2018 160.622 87.1756 162.17 85.6096C162.17 85.6096 162.17 85.5235 162.291 85.4718H162.446C161.592 87.1516 160.833 88.8779 160.171 90.6425C159.62 91.9007 161.464 93.0037 162.015 91.7283C162.649 89.6736 163.535 87.7052 164.652 85.8682C164.748 85.7454 164.818 85.6048 164.859 85.4545C165.29 85.4545 165.704 85.4545 166.135 85.4545C163.48 88.2295 163.463 93.8138 163.136 97.1403C162.653 102.311 162.291 107.482 162.17 112.652C162.17 113.824 163.136 119.374 160.447 119.167C157.758 118.961 155.276 119.167 152.76 119.167C153.185 107.93 153.489 96.652 153.673 85.3339Z" fill="#090E16"/>
<path d="M130.612 51.5692C132.544 52.8811 134.344 54.376 135.989 56.0332C140.884 60.4801 145.796 64.8407 150.416 69.5633C144.194 70.0631 137.989 70.9938 131.749 71.3902C129.423 71.5454 130.129 57.8947 130.612 51.5692Z" fill="#090E16"/>
<path d="M174.097 110.119C173.908 115.617 174.097 121.063 174.011 126.562C174.011 131.732 173.77 137.317 171.547 142.074C170.202 144.935 167.083 146.262 163.515 146.848C163.344 146.695 163.123 146.609 162.894 146.607C150.829 146.072 152.811 130.474 152.829 121.425C156.276 121.425 159.723 121.425 163.17 121.667C163.457 121.662 163.73 121.546 163.933 121.344C164.136 121.141 164.251 120.867 164.256 120.581C164.256 113.687 164.411 106.792 165.014 99.8118C165.23 96.8884 165.592 93.9776 166.1 91.0906C167.014 86.2818 171.012 84.3169 172.701 89.1257C174.942 95.5546 174.339 103.431 174.097 110.119Z" fill="#090E16"/>
<path d="M77.4398 82.0419C95.2615 82.0419 113.049 81.4559 130.87 81.8351C131.133 81.8018 131.374 81.6741 131.548 81.4758C131.723 81.2775 131.82 81.0222 131.82 80.7579C131.82 80.4935 131.723 80.2382 131.548 80.0399C131.374 79.8416 131.133 79.7139 130.87 79.6806C113.049 79.3014 95.2615 79.853 77.4398 79.8874C77.1775 79.9207 76.9364 80.0485 76.7617 80.2468C76.5869 80.4451 76.4905 80.7003 76.4905 80.9647C76.4905 81.229 76.5869 81.4843 76.7617 81.6826C76.9364 81.8809 77.1775 82.0087 77.4398 82.0419V82.0419Z" fill="#090E16"/>
<path d="M77.4398 97.9159C95.2615 97.9159 113.049 97.9159 130.87 97.6746C131.154 97.6746 131.426 97.562 131.626 97.3616C131.826 97.1612 131.939 96.8894 131.939 96.606C131.939 96.3225 131.826 96.0507 131.626 95.8503C131.426 95.6499 131.154 95.5374 130.87 95.5374C113.049 95.7269 95.2615 95.7614 77.4398 95.7614C77.1775 95.7947 76.9364 95.9224 76.7617 96.1207C76.5869 96.319 76.4905 96.5743 76.4905 96.8387C76.4905 97.103 76.5869 97.3583 76.7617 97.5566C76.9364 97.7549 77.1775 97.8826 77.4398 97.9159V97.9159Z" fill="#090E16"/>
<path d="M132.456 111.498C114.117 111.498 95.7785 111.101 77.4398 110.929C77.1775 110.962 76.9364 111.09 76.7617 111.288C76.5869 111.487 76.4905 111.742 76.4905 112.006C76.4905 112.27 76.5869 112.526 76.7617 112.724C76.9364 112.922 77.1775 113.05 77.4398 113.083C95.7785 113.256 114.117 113.618 132.456 113.652C132.718 113.619 132.959 113.491 133.134 113.293C133.309 113.094 133.405 112.839 133.405 112.575C133.405 112.311 133.309 112.055 133.134 111.857C132.959 111.659 132.718 111.531 132.456 111.498Z" fill="#090E16"/>
<path d="M132.456 126.062C114.117 126.062 95.7785 126.062 77.4398 125.51C76.0609 125.51 76.0609 127.613 77.4398 127.665C95.7785 128.233 114.117 128.216 132.456 128.216C132.718 128.183 132.959 128.055 133.134 127.857C133.309 127.659 133.405 127.403 133.405 127.139C133.405 126.875 133.309 126.619 133.134 126.421C132.959 126.223 132.718 126.095 132.456 126.062Z" fill="#090E16"/>
</g>
<defs>
<clipPath id="clip0_16_742">
<rect width="115.186" height="103.742" fill="white" transform="translate(62.0483 46.5364)"/>
</clipPath>
</defs>
</svg>
