<svg width="141" height="141" viewBox="0 0 141 141" fill="none" xmlns="http://www.w3.org/2000/svg">
<path d="M115.93 48.3716C114.468 47.8682 112.952 47.3918 111.391 46.9413C111.648 45.8945 111.883 44.8612 112.093 43.8455C115.528 27.1672 113.282 13.7311 105.611 9.30737C98.2552 5.06559 86.2255 9.48833 74.0762 20.0615C72.9079 21.0782 71.7363 22.1547 70.5653 23.2828C69.785 22.5364 69.0059 21.8151 68.2289 21.1252C55.496 9.81962 42.7333 5.0553 35.0697 9.49184C27.721 13.7459 25.5448 26.3771 28.6376 42.1832C28.9363 43.7099 29.2854 45.269 29.6802 46.8542C27.8739 47.3669 26.1301 47.9136 24.4616 48.4951C9.53365 53.6996 0 61.8564 0 70.3171C0 79.0554 10.2344 87.8201 25.783 93.1346C27.01 93.5539 28.2832 93.9505 29.5953 94.327C29.1694 96.0414 28.799 97.7214 28.488 99.3601C25.539 114.892 27.842 127.225 35.1711 131.452C42.7413 135.817 55.4463 131.33 67.8178 120.516C68.7956 119.661 69.7769 118.755 70.76 117.804C72.0342 119.031 73.3064 120.193 74.5719 121.282C86.5551 131.594 98.3904 135.758 105.713 131.519C113.275 127.141 115.733 113.892 112.542 97.7736C112.299 96.5426 112.015 95.2849 111.697 94.005C112.589 93.7412 113.465 93.4689 114.319 93.1858C130.483 87.8301 141 79.1721 141 70.3171C141 61.8258 131.159 53.614 115.93 48.3716ZM112.424 87.4682C111.653 87.7235 110.862 87.9702 110.056 88.2094C108.272 82.5601 105.863 76.5529 102.916 70.3465C105.729 64.2879 108.044 58.3575 109.778 52.7449C111.221 53.1623 112.621 53.6025 113.97 54.0671C127.018 58.5588 134.977 65.1999 134.977 70.3171C134.977 75.7679 126.381 82.8437 112.424 87.4682ZM106.633 98.9435C108.044 106.071 108.246 112.515 107.311 117.553C106.471 122.079 104.783 125.097 102.694 126.306C98.2509 128.878 88.7484 125.535 78.5002 116.716C77.3253 115.705 76.142 114.626 74.9549 113.483C78.9278 109.138 82.8986 104.086 86.7739 98.4764C93.5902 97.8715 100.03 96.8827 105.87 95.5327C106.158 96.6929 106.413 97.8309 106.633 98.9435ZM48.0701 125.862C43.7287 127.395 40.2709 127.439 38.1808 126.234C33.7332 123.668 31.8843 113.766 34.4063 100.483C34.6952 98.9623 35.0391 97.3997 35.4353 95.8025C41.2114 97.0797 47.604 97.9988 54.4366 98.5527C58.3381 104.042 62.4235 109.088 66.5406 113.506C65.6411 114.375 64.7451 115.202 63.8541 115.981C58.3835 120.762 52.9014 124.155 48.0701 125.862ZM27.7311 87.4349C20.8558 85.0849 15.1779 82.0308 11.286 78.698C7.78885 75.7031 6.02322 72.7298 6.02322 70.3171C6.02322 65.1829 13.6778 58.6341 26.4443 54.183C27.9933 53.6429 29.6149 53.1339 31.2977 52.6558C33.0621 58.3952 35.3766 64.3958 38.1698 70.4637C35.3405 76.6217 32.9931 82.718 31.2114 88.5246C30.0117 88.1798 28.8494 87.8168 27.7311 87.4349ZM34.5489 41.0265C31.8991 27.4842 33.6589 17.2684 38.0874 14.7049C42.8046 11.974 53.2355 15.8677 64.2293 25.6295C64.9321 26.2534 65.6376 26.9065 66.3451 27.5821C62.2483 31.981 58.2003 36.989 54.3335 42.4463C47.7022 43.0609 41.3544 44.0483 35.5182 45.3704C35.1512 43.8944 34.8262 42.4443 34.5489 41.0265ZM95.3699 56.0448C93.9747 53.6349 92.5424 51.282 91.0822 48.9933C95.581 49.562 99.8913 50.3169 103.939 51.2408C102.724 55.1355 101.209 59.2076 99.4262 63.3821C98.1472 60.9539 96.7945 58.5056 95.3699 56.0448ZM70.5673 31.8869C73.3456 34.8968 76.1279 38.2574 78.8646 41.9037C76.1068 41.7734 73.315 41.7056 70.5 41.7056C67.7116 41.7056 64.9403 41.7719 62.1997 41.8999C64.9391 38.2876 67.7455 34.9315 70.5673 31.8869ZM45.6057 56.0864C44.212 58.5031 42.8844 60.9381 41.6255 63.3776C39.8714 59.2176 38.3708 55.1269 37.145 51.177C41.1679 50.2768 45.4579 49.5407 49.9281 48.9827C48.4473 51.2925 47.0032 53.6627 45.6057 56.0859V56.0864ZM50.0568 92.0812C45.4383 91.5659 41.0839 90.8677 37.0619 89.9923C38.3073 85.9719 39.841 81.7939 41.6322 77.5443C42.8944 79.9821 44.2274 82.418 45.6296 84.84H45.6298C47.0581 87.3074 48.5379 89.7243 50.0568 92.0812ZM70.7339 109.172C67.879 106.092 65.0314 102.685 62.2503 99.0195C64.9501 99.1254 67.7026 99.1796 70.5 99.1796C73.374 99.1796 76.215 99.1149 79.0114 98.9904C76.2657 102.721 73.4934 106.134 70.7339 109.172ZM99.4837 77.3277C101.368 81.6232 102.957 85.7794 104.218 89.7313C100.13 90.6639 95.7163 91.4151 91.0656 91.9733C92.5294 89.6537 93.9742 87.2604 95.394 84.7986C96.8304 82.3079 98.1942 79.8134 99.4837 77.3277ZM90.1764 81.7893C87.9723 85.611 85.7095 89.2592 83.4123 92.7029C79.2283 93.002 74.9057 93.1561 70.5 93.1561C66.1122 93.1561 61.844 93.0199 57.734 92.7531C55.3442 89.2642 53.0322 85.6052 50.8421 81.8222H50.8426C48.6584 78.0495 46.648 74.2449 44.8264 70.4617C46.6475 66.6697 48.6526 62.8608 50.8243 59.0949L50.8238 59.0957C53.0013 55.3197 55.293 51.6785 57.6607 48.2115C61.8541 47.8945 66.1541 47.7291 70.4997 47.7291H70.5C74.8653 47.7291 79.1708 47.8958 83.3629 48.2155C85.6945 51.6572 87.9706 55.2866 90.1566 59.063C92.3675 62.8819 94.3984 66.6654 96.235 70.3761C94.4039 74.1506 92.3775 77.9722 90.1764 81.7893ZM102.602 14.5257C107.324 17.2486 109.16 28.2299 106.193 42.6297C106.004 43.5486 105.791 44.4845 105.56 45.4329C99.7098 44.0832 93.3576 43.0787 86.7069 42.4548C82.8326 36.9376 78.8177 31.9218 74.7877 27.5793C75.8712 26.537 76.9532 25.5431 78.0306 24.6052C88.4402 15.5462 98.1693 11.9695 102.602 14.5257ZM70.5 57.7263C77.4536 57.7263 83.0908 63.3633 83.0908 70.3171C83.0908 77.2707 77.4536 82.908 70.5 82.908C63.5464 82.908 57.9092 77.2707 57.9092 70.3171C57.9092 63.3633 63.5464 57.7263 70.5 57.7263Z" fill="#52525F"/>
</svg>
