<svg width="264" height="48" viewBox="0 0 264 48" fill="none" xmlns="http://www.w3.org/2000/svg">
<rect width="48" height="48" rx="24" fill="#393E46"/>
<path d="M30 14H27C25.6739 14 24.4021 14.5268 23.4645 15.4645C22.5268 16.4021 22 17.6739 22 19V22H19V26H22V34H26V26H29L30 22H26V19C26 18.7348 26.1054 18.4804 26.2929 18.2929C26.4804 18.1054 26.7348 18 27 18H30V14Z" stroke="#EEEEEE" stroke-opacity="0.75" stroke-width="2" stroke-linecap="round" stroke-linejoin="round"/>
<g clip-path="url(#clip0_18_674)">
<rect x="72" width="48" height="48" rx="24" fill="#393E46"/>
<rect x="72" width="48" height="48" rx="24" fill="#393E46"/>
<rect x="72" width="48" height="48" rx="24" fill="#393E46"/>
<path d="M101 14H91C88.2386 14 86 16.2386 86 19V29C86 31.7614 88.2386 34 91 34H101C103.761 34 106 31.7614 106 29V19C106 16.2386 103.761 14 101 14Z" stroke="#EEEEEE" stroke-opacity="0.75" stroke-width="2" stroke-linecap="round" stroke-linejoin="round"/>
<path d="M100 23.3701C100.123 24.2023 99.9812 25.0523 99.5937 25.7991C99.2062 26.5459 98.5931 27.1515 97.8416 27.5297C97.0901 27.908 96.2384 28.0397 95.4077 27.906C94.5771 27.7723 93.8097 27.3801 93.2148 26.7852C92.6199 26.1903 92.2277 25.4229 92.094 24.5923C91.9604 23.7616 92.092 22.91 92.4703 22.1584C92.8485 21.4069 93.4541 20.7938 94.2009 20.4063C94.9477 20.0188 95.7977 19.8766 96.63 20.0001C97.4789 20.1259 98.2648 20.5215 98.8716 21.1284C99.4785 21.7352 99.8741 22.5211 100 23.3701Z" stroke="#EEEEEE" stroke-opacity="0.75" stroke-width="2" stroke-linecap="round" stroke-linejoin="round"/>
<path d="M101.5 18.5H101.51" stroke="#EEEEEE" stroke-opacity="0.75" stroke-width="2" stroke-linecap="round" stroke-linejoin="round"/>
</g>
<g clip-path="url(#clip1_18_674)">
<rect x="144" width="48" height="48" rx="24" fill="#393E46"/>
<rect x="144" width="48" height="48" rx="24" fill="#393E46"/>
<rect x="144" width="48" height="48" rx="24" fill="#393E46"/>
<path d="M179 15C178.042 15.6755 176.982 16.1922 175.86 16.53C175.258 15.8376 174.457 15.3467 173.567 15.124C172.677 14.9012 171.739 14.9572 170.882 15.2845C170.025 15.6118 169.288 16.1944 168.773 16.9538C168.258 17.7131 167.988 18.6124 168 19.53V20.53C166.243 20.5756 164.501 20.1859 162.931 19.3955C161.361 18.6051 160.01 17.4387 159 16C159 16 155 25 164 29C161.941 30.398 159.487 31.099 157 31C166 36 177 31 177 19.5C176.999 19.2215 176.972 18.9436 176.92 18.67C177.941 17.6635 178.661 16.3928 179 15V15Z" stroke="#EEEEEE" stroke-opacity="0.75" stroke-width="2" stroke-linecap="round" stroke-linejoin="round"/>
</g>
<rect x="216" width="48" height="48" rx="24" fill="#393E46"/>
<path d="M250.54 18.42C250.421 17.9454 250.179 17.5106 249.839 17.1594C249.498 16.8082 249.071 16.5532 248.6 16.42C246.88 16 240 16 240 16C240 16 233.12 16 231.4 16.46C230.929 16.5932 230.502 16.8482 230.161 17.1994C229.821 17.5506 229.579 17.9854 229.46 18.46C229.145 20.2056 228.991 21.9763 229 23.75C228.989 25.537 229.143 27.3213 229.46 29.08C229.591 29.5398 229.838 29.9581 230.178 30.2945C230.518 30.6308 230.939 30.8738 231.4 31C233.12 31.46 240 31.46 240 31.46C240 31.46 246.88 31.46 248.6 31C249.071 30.8668 249.498 30.6118 249.839 30.2606C250.179 29.9094 250.421 29.4746 250.54 29C250.852 27.2676 251.006 25.5103 251 23.75C251.011 21.963 250.857 20.1787 250.54 18.42V18.42Z" stroke="#EEEEEE" stroke-opacity="0.75" stroke-width="2" stroke-linecap="round" stroke-linejoin="round"/>
<path d="M237.75 27.02L243.5 23.75L237.75 20.48V27.02Z" stroke="#EEEEEE" stroke-opacity="0.75" stroke-width="2" stroke-linecap="round" stroke-linejoin="round"/>
<defs>
<clipPath id="clip0_18_674">
<rect x="72" width="48" height="48" rx="24" fill="white"/>
</clipPath>
<clipPath id="clip1_18_674">
<rect x="144" width="48" height="48" rx="24" fill="white"/>
</clipPath>
</defs>
</svg>
