<svg width="475" height="47" viewBox="0 0 475 47" fill="none" xmlns="http://www.w3.org/2000/svg">
<path d="M13 19L22 12L31 19V30C31 30.5304 30.7893 31.0391 30.4142 31.4142C30.0391 31.7893 29.5304 32 29 32H15C14.4696 32 13.9609 31.7893 13.5858 31.4142C13.2107 31.0391 13 30.5304 13 30V19Z" stroke="#EEEEEE" stroke-width="2" stroke-linecap="round" stroke-linejoin="round"/>
<path d="M19 32V22H25V32" stroke="#EEEEEE" stroke-width="2" stroke-linecap="round" stroke-linejoin="round"/>
<path d="M55.052 17.454V30H53.414V24.312H47.024V30H45.386V17.454H47.024V22.962H53.414V17.454H55.052ZM62.1509 30.162C61.2269 30.162 60.3869 29.952 59.6309 29.532C58.8869 29.112 58.2989 28.518 57.8669 27.75C57.4469 26.97 57.2369 26.07 57.2369 25.05C57.2369 24.042 57.4529 23.154 57.8849 22.386C58.3289 21.606 58.9289 21.012 59.6849 20.604C60.4409 20.184 61.2869 19.974 62.2229 19.974C63.1589 19.974 64.0049 20.184 64.7609 20.604C65.5169 21.012 66.1109 21.6 66.5429 22.368C66.9869 23.136 67.2089 24.03 67.2089 25.05C67.2089 26.07 66.9809 26.97 66.5249 27.75C66.0809 28.518 65.4749 29.112 64.7069 29.532C63.9389 29.952 63.0869 30.162 62.1509 30.162ZM62.1509 28.722C62.7389 28.722 63.2909 28.584 63.8069 28.308C64.3229 28.032 64.7369 27.618 65.0489 27.066C65.3729 26.514 65.5349 25.842 65.5349 25.05C65.5349 24.258 65.3789 23.586 65.0669 23.034C64.7549 22.482 64.3469 22.074 63.8429 21.81C63.3389 21.534 62.7929 21.396 62.2049 21.396C61.6049 21.396 61.0529 21.534 60.5489 21.81C60.0569 22.074 59.6609 22.482 59.3609 23.034C59.0609 23.586 58.9109 24.258 58.9109 25.05C58.9109 25.854 59.0549 26.532 59.3429 27.084C59.6429 27.636 60.0389 28.05 60.5309 28.326C61.0229 28.59 61.5629 28.722 62.1509 28.722ZM81.2246 19.956C81.9926 19.956 82.6766 20.118 83.2766 20.442C83.8766 20.754 84.3506 21.228 84.6986 21.864C85.0466 22.5 85.2206 23.274 85.2206 24.186V30H83.6006V24.42C83.6006 23.436 83.3546 22.686 82.8626 22.17C82.3826 21.642 81.7286 21.378 80.9006 21.378C80.0486 21.378 79.3706 21.654 78.8666 22.206C78.3626 22.746 78.1106 23.532 78.1106 24.564V30H76.4906V24.42C76.4906 23.436 76.2446 22.686 75.7526 22.17C75.2726 21.642 74.6186 21.378 73.7906 21.378C72.9386 21.378 72.2606 21.654 71.7566 22.206C71.2526 22.746 71.0006 23.532 71.0006 24.564V30H69.3626V20.136H71.0006V21.558C71.3246 21.042 71.7566 20.646 72.2966 20.37C72.8486 20.094 73.4546 19.956 74.1146 19.956C74.9426 19.956 75.6746 20.142 76.3106 20.514C76.9466 20.886 77.4206 21.432 77.7326 22.152C78.0086 21.456 78.4646 20.916 79.1006 20.532C79.7366 20.148 80.4446 19.956 81.2246 19.956ZM96.9075 24.69C96.9075 25.002 96.8895 25.332 96.8535 25.68H88.9695C89.0295 26.652 89.3595 27.414 89.9595 27.966C90.5715 28.506 91.3095 28.776 92.1735 28.776C92.8815 28.776 93.4695 28.614 93.9375 28.29C94.4175 27.954 94.7535 27.51 94.9455 26.958H96.7095C96.4455 27.906 95.9175 28.68 95.1255 29.28C94.3335 29.868 93.3495 30.162 92.1735 30.162C91.2375 30.162 90.3975 29.952 89.6535 29.532C88.9215 29.112 88.3455 28.518 87.9255 27.75C87.5055 26.97 87.2955 26.07 87.2955 25.05C87.2955 24.03 87.4995 23.136 87.9075 22.368C88.3155 21.6 88.8855 21.012 89.6175 20.604C90.3615 20.184 91.2135 19.974 92.1735 19.974C93.1095 19.974 93.9375 20.178 94.6575 20.586C95.3775 20.994 95.9295 21.558 96.3135 22.278C96.7095 22.986 96.9075 23.79 96.9075 24.69ZM95.2155 24.348C95.2155 23.724 95.0775 23.19 94.8015 22.746C94.5255 22.29 94.1475 21.948 93.6675 21.72C93.1995 21.48 92.6775 21.36 92.1015 21.36C91.2735 21.36 90.5655 21.624 89.9775 22.152C89.4015 22.68 89.0715 23.412 88.9875 24.348H95.2155Z" fill="#EEEEEE"/>
<path d="M188 26.92V29.92C188.001 30.1985 187.944 30.4741 187.833 30.7293C187.721 30.9845 187.557 31.2136 187.352 31.4018C187.147 31.5901 186.905 31.7335 186.641 31.8227C186.377 31.9119 186.097 31.945 185.82 31.92C182.743 31.5856 179.787 30.5341 177.19 28.85C174.774 27.3146 172.725 25.2661 171.19 22.85C169.5 20.2412 168.448 17.271 168.12 14.18C168.095 13.9034 168.128 13.6247 168.217 13.3616C168.305 13.0985 168.448 12.8567 168.635 12.6516C168.822 12.4465 169.05 12.2827 169.304 12.1705C169.558 12.0583 169.832 12.0002 170.11 12H173.11C173.595 11.9952 174.066 12.1671 174.434 12.4835C174.802 12.8 175.042 13.2394 175.11 13.72C175.237 14.68 175.472 15.6227 175.81 16.53C175.945 16.8879 175.974 17.2769 175.894 17.6509C175.814 18.0248 175.629 18.3681 175.36 18.64L174.09 19.91C175.514 22.4135 177.587 24.4864 180.09 25.91L181.36 24.64C181.632 24.3711 181.975 24.1858 182.349 24.1061C182.723 24.0263 183.112 24.0554 183.47 24.19C184.377 24.5285 185.32 24.7634 186.28 24.89C186.766 24.9585 187.209 25.2032 187.527 25.5775C187.844 25.9518 188.012 26.4296 188 26.92Z" stroke="#EEEEEE" stroke-width="2" stroke-linecap="round" stroke-linejoin="round"/>
<path d="M208.802 27.21H203.33L202.322 30H200.594L205.13 17.526H207.02L211.538 30H209.81L208.802 27.21ZM208.334 25.878L206.066 19.542L203.798 25.878H208.334ZM215.153 21.972C215.489 21.384 215.981 20.904 216.629 20.532C217.277 20.16 218.015 19.974 218.843 19.974C219.731 19.974 220.529 20.184 221.237 20.604C221.945 21.024 222.503 21.618 222.911 22.386C223.319 23.142 223.523 24.024 223.523 25.032C223.523 26.028 223.319 26.916 222.911 27.696C222.503 28.476 221.939 29.082 221.219 29.514C220.511 29.946 219.719 30.162 218.843 30.162C217.991 30.162 217.241 29.976 216.593 29.604C215.957 29.232 215.477 28.758 215.153 28.182V30H213.515V16.68H215.153V21.972ZM221.849 25.032C221.849 24.288 221.699 23.64 221.399 23.088C221.099 22.536 220.691 22.116 220.175 21.828C219.671 21.54 219.113 21.396 218.501 21.396C217.901 21.396 217.343 21.546 216.827 21.846C216.323 22.134 215.915 22.56 215.603 23.124C215.303 23.676 215.153 24.318 215.153 25.05C215.153 25.794 215.303 26.448 215.603 27.012C215.915 27.564 216.323 27.99 216.827 28.29C217.343 28.578 217.901 28.722 218.501 28.722C219.113 28.722 219.671 28.578 220.175 28.29C220.691 27.99 221.099 27.564 221.399 27.012C221.699 26.448 221.849 25.788 221.849 25.032ZM229.981 30.162C229.057 30.162 228.217 29.952 227.461 29.532C226.717 29.112 226.129 28.518 225.697 27.75C225.277 26.97 225.067 26.07 225.067 25.05C225.067 24.042 225.283 23.154 225.715 22.386C226.159 21.606 226.759 21.012 227.515 20.604C228.271 20.184 229.117 19.974 230.053 19.974C230.989 19.974 231.835 20.184 232.591 20.604C233.347 21.012 233.941 21.6 234.373 22.368C234.817 23.136 235.039 24.03 235.039 25.05C235.039 26.07 234.811 26.97 234.355 27.75C233.911 28.518 233.305 29.112 232.537 29.532C231.769 29.952 230.917 30.162 229.981 30.162ZM229.981 28.722C230.569 28.722 231.121 28.584 231.637 28.308C232.153 28.032 232.567 27.618 232.879 27.066C233.203 26.514 233.365 25.842 233.365 25.05C233.365 24.258 233.209 23.586 232.897 23.034C232.585 22.482 232.177 22.074 231.673 21.81C231.169 21.534 230.623 21.396 230.035 21.396C229.435 21.396 228.883 21.534 228.379 21.81C227.887 22.074 227.491 22.482 227.191 23.034C226.891 23.586 226.741 24.258 226.741 25.05C226.741 25.854 226.885 26.532 227.173 27.084C227.473 27.636 227.869 28.05 228.361 28.326C228.853 28.59 229.393 28.722 229.981 28.722ZM245.941 20.136V30H244.303V28.542C243.991 29.046 243.553 29.442 242.989 29.73C242.437 30.006 241.825 30.144 241.153 30.144C240.385 30.144 239.695 29.988 239.083 29.676C238.471 29.352 237.985 28.872 237.625 28.236C237.277 27.6 237.103 26.826 237.103 25.914V20.136H238.723V25.698C238.723 26.67 238.969 27.42 239.461 27.948C239.953 28.464 240.625 28.722 241.477 28.722C242.353 28.722 243.043 28.452 243.547 27.912C244.051 27.372 244.303 26.586 244.303 25.554V20.136H245.941ZM250.704 21.486V27.3C250.704 27.78 250.806 28.122 251.01 28.326C251.214 28.518 251.568 28.614 252.072 28.614H253.278V30H251.802C250.89 30 250.206 29.79 249.75 29.37C249.294 28.95 249.066 28.26 249.066 27.3V21.486H247.788V20.136H249.066V17.652H250.704V20.136H253.278V21.486H250.704ZM271.924 19.956C272.692 19.956 273.376 20.118 273.976 20.442C274.576 20.754 275.05 21.228 275.398 21.864C275.746 22.5 275.92 23.274 275.92 24.186V30H274.3V24.42C274.3 23.436 274.054 22.686 273.562 22.17C273.082 21.642 272.428 21.378 271.6 21.378C270.748 21.378 270.07 21.654 269.566 22.206C269.062 22.746 268.81 23.532 268.81 24.564V30H267.19V24.42C267.19 23.436 266.944 22.686 266.452 22.17C265.972 21.642 265.318 21.378 264.49 21.378C263.638 21.378 262.96 21.654 262.456 22.206C261.952 22.746 261.7 23.532 261.7 24.564V30H260.062V20.136H261.7V21.558C262.024 21.042 262.456 20.646 262.996 20.37C263.548 20.094 264.154 19.956 264.814 19.956C265.642 19.956 266.374 20.142 267.01 20.514C267.646 20.886 268.12 21.432 268.432 22.152C268.708 21.456 269.164 20.916 269.8 20.532C270.436 20.148 271.144 19.956 271.924 19.956ZM287.607 24.69C287.607 25.002 287.589 25.332 287.553 25.68H279.669C279.729 26.652 280.059 27.414 280.659 27.966C281.271 28.506 282.009 28.776 282.873 28.776C283.581 28.776 284.169 28.614 284.637 28.29C285.117 27.954 285.453 27.51 285.645 26.958H287.409C287.145 27.906 286.617 28.68 285.825 29.28C285.033 29.868 284.049 30.162 282.873 30.162C281.937 30.162 281.097 29.952 280.353 29.532C279.621 29.112 279.045 28.518 278.625 27.75C278.205 26.97 277.995 26.07 277.995 25.05C277.995 24.03 278.199 23.136 278.607 22.368C279.015 21.6 279.585 21.012 280.317 20.604C281.061 20.184 281.913 19.974 282.873 19.974C283.809 19.974 284.637 20.178 285.357 20.586C286.077 20.994 286.629 21.558 287.013 22.278C287.409 22.986 287.607 23.79 287.607 24.69ZM285.915 24.348C285.915 23.724 285.777 23.19 285.501 22.746C285.225 22.29 284.847 21.948 284.367 21.72C283.899 21.48 283.377 21.36 282.801 21.36C281.973 21.36 281.265 21.624 280.677 22.152C280.101 22.68 279.771 23.412 279.687 24.348H285.915Z" fill="#EEEEEE"/>
<path d="M377 31V29C377 27.9391 376.579 26.9217 375.828 26.1716C375.078 25.4214 374.061 25 373 25H365C363.939 25 362.922 25.4214 362.172 26.1716C361.421 26.9217 361 27.9391 361 29V31" stroke="#EEEEEE" stroke-width="2" stroke-linecap="round" stroke-linejoin="round"/>
<path d="M369 21C371.209 21 373 19.2091 373 17C373 14.7909 371.209 13 369 13C366.791 13 365 14.7909 365 17C365 19.2091 366.791 21 369 21Z" stroke="#EEEEEE" stroke-width="2" stroke-linecap="round" stroke-linejoin="round"/>
<path d="M391.774 23.718C391.774 22.494 392.05 21.396 392.602 20.424C393.154 19.44 393.904 18.672 394.852 18.12C395.812 17.568 396.874 17.292 398.038 17.292C399.406 17.292 400.6 17.622 401.62 18.282C402.64 18.942 403.384 19.878 403.852 21.09H401.89C401.542 20.334 401.038 19.752 400.378 19.344C399.73 18.936 398.95 18.732 398.038 18.732C397.162 18.732 396.376 18.936 395.68 19.344C394.984 19.752 394.438 20.334 394.042 21.09C393.646 21.834 393.448 22.71 393.448 23.718C393.448 24.714 393.646 25.59 394.042 26.346C394.438 27.09 394.984 27.666 395.68 28.074C396.376 28.482 397.162 28.686 398.038 28.686C398.95 28.686 399.73 28.488 400.378 28.092C401.038 27.684 401.542 27.102 401.89 26.346H403.852C403.384 27.546 402.64 28.476 401.62 29.136C400.6 29.784 399.406 30.108 398.038 30.108C396.874 30.108 395.812 29.838 394.852 29.298C393.904 28.746 393.154 27.984 392.602 27.012C392.05 26.04 391.774 24.942 391.774 23.718ZM410.592 30.162C409.668 30.162 408.828 29.952 408.072 29.532C407.328 29.112 406.74 28.518 406.308 27.75C405.888 26.97 405.678 26.07 405.678 25.05C405.678 24.042 405.894 23.154 406.326 22.386C406.77 21.606 407.37 21.012 408.126 20.604C408.882 20.184 409.728 19.974 410.664 19.974C411.6 19.974 412.446 20.184 413.202 20.604C413.958 21.012 414.552 21.6 414.984 22.368C415.428 23.136 415.65 24.03 415.65 25.05C415.65 26.07 415.422 26.97 414.966 27.75C414.522 28.518 413.916 29.112 413.148 29.532C412.38 29.952 411.528 30.162 410.592 30.162ZM410.592 28.722C411.18 28.722 411.732 28.584 412.248 28.308C412.764 28.032 413.178 27.618 413.49 27.066C413.814 26.514 413.976 25.842 413.976 25.05C413.976 24.258 413.82 23.586 413.508 23.034C413.196 22.482 412.788 22.074 412.284 21.81C411.78 21.534 411.234 21.396 410.646 21.396C410.046 21.396 409.494 21.534 408.99 21.81C408.498 22.074 408.102 22.482 407.802 23.034C407.502 23.586 407.352 24.258 407.352 25.05C407.352 25.854 407.496 26.532 407.784 27.084C408.084 27.636 408.48 28.05 408.972 28.326C409.464 28.59 410.004 28.722 410.592 28.722ZM422.61 19.956C423.81 19.956 424.782 20.322 425.526 21.054C426.27 21.774 426.642 22.818 426.642 24.186V30H425.022V24.42C425.022 23.436 424.776 22.686 424.284 22.17C423.792 21.642 423.12 21.378 422.268 21.378C421.404 21.378 420.714 21.648 420.198 22.188C419.694 22.728 419.442 23.514 419.442 24.546V30H417.804V20.136H419.442V21.54C419.766 21.036 420.204 20.646 420.756 20.37C421.32 20.094 421.938 19.956 422.61 19.956ZM431.316 21.486V27.3C431.316 27.78 431.418 28.122 431.622 28.326C431.826 28.518 432.18 28.614 432.684 28.614H433.89V30H432.414C431.502 30 430.818 29.79 430.362 29.37C429.906 28.95 429.678 28.26 429.678 27.3V21.486H428.4V20.136H429.678V17.652H431.316V20.136H433.89V21.486H431.316ZM435.262 25.032C435.262 24.024 435.466 23.142 435.874 22.386C436.282 21.618 436.84 21.024 437.548 20.604C438.268 20.184 439.066 19.974 439.942 19.974C440.806 19.974 441.556 20.16 442.192 20.532C442.828 20.904 443.302 21.372 443.614 21.936V20.136H445.27V30H443.614V28.164C443.29 28.74 442.804 29.22 442.156 29.604C441.52 29.976 440.776 30.162 439.924 30.162C439.048 30.162 438.256 29.946 437.548 29.514C436.84 29.082 436.282 28.476 435.874 27.696C435.466 26.916 435.262 26.028 435.262 25.032ZM443.614 25.05C443.614 24.306 443.464 23.658 443.164 23.106C442.864 22.554 442.456 22.134 441.94 21.846C441.436 21.546 440.878 21.396 440.266 21.396C439.654 21.396 439.096 21.54 438.592 21.828C438.088 22.116 437.686 22.536 437.386 23.088C437.086 23.64 436.936 24.288 436.936 25.032C436.936 25.788 437.086 26.448 437.386 27.012C437.686 27.564 438.088 27.99 438.592 28.29C439.096 28.578 439.654 28.722 440.266 28.722C440.878 28.722 441.436 28.578 441.94 28.29C442.456 27.99 442.864 27.564 443.164 27.012C443.464 26.448 443.614 25.794 443.614 25.05ZM447.426 25.05C447.426 24.03 447.63 23.142 448.038 22.386C448.446 21.618 449.01 21.024 449.73 20.604C450.462 20.184 451.296 19.974 452.232 19.974C453.444 19.974 454.44 20.268 455.22 20.856C456.012 21.444 456.534 22.26 456.786 23.304H455.022C454.854 22.704 454.524 22.23 454.032 21.882C453.552 21.534 452.952 21.36 452.232 21.36C451.296 21.36 450.54 21.684 449.964 22.332C449.388 22.968 449.1 23.874 449.1 25.05C449.1 26.238 449.388 27.156 449.964 27.804C450.54 28.452 451.296 28.776 452.232 28.776C452.952 28.776 453.552 28.608 454.032 28.272C454.512 27.936 454.842 27.456 455.022 26.832H456.786C456.522 27.84 455.994 28.65 455.202 29.262C454.41 29.862 453.42 30.162 452.232 30.162C451.296 30.162 450.462 29.952 449.73 29.532C449.01 29.112 448.446 28.518 448.038 27.75C447.63 26.982 447.426 26.082 447.426 25.05ZM460.97 21.486V27.3C460.97 27.78 461.072 28.122 461.276 28.326C461.48 28.518 461.834 28.614 462.338 28.614H463.544V30H462.068C461.156 30 460.472 29.79 460.016 29.37C459.56 28.95 459.332 28.26 459.332 27.3V21.486H458.054V20.136H459.332V17.652H460.97V20.136H463.544V21.486H460.97Z" fill="#EEEEEE"/>
</svg>
